<svg width="1239" height="1280" viewBox="0 0 1239 1280" fill="none" xmlns="http://www.w3.org/2000/svg">
<path d="M1183.5 1.59998C1105.4 4.29998 823.3 13 815.9 13H808.5L782.1 38.6C766.8 53.4 755.2 63.9 754.4 63.6C753.7 63.3 746 61.5 737.3 59.6C599.2 29.1 456.9 46.9999 333.5 110.4C277.3 139.4 233.7 171.1 189.5 215.4C160.5 244.5 141.4 267.5 121 298C71.5 372.3 43 451.4 32.8 543C31.1 558.5 31.1 627.5 32.8 643C44.1 744.7 78.8 833.2 138.6 912.7C146.2 922.8 147.8 925.6 146.8 926.5C146.1 927.2 140.8 932.2 135 937.7L124.4 947.7L134 948.4C139.2 948.7 148.9 949 155.6 949H167.7L189.6 970.8C207.7 988.8 234.1 1012.3 244.1 1019.3C246.2 1020.8 245.8 1021.4 221.4 1047C46.7 1230.7 1.29999 1278.5 1.49999 1278.8C1.59999 1279 80.2 1237.4 176.1 1186.4C272 1135.5 352.8 1092.6 355.5 1091.3L360.5 1088.8L373.6 1094.4C494.2 1145.2 630.5 1154.8 758 1121.4C899.2 1084.4 1021.3 996.6 1097 877.5C1120.8 840.2 1141.6 796.1 1154.8 754.9C1172.4 700.2 1180.2 650.6 1180.2 593C1180.2 510.8 1162.6 435 1126.5 361.5C1099 305.5 1065.1 258.2 1021.7 214.9C1015.8 209 1011 203.9 1011.1 203.4C1011.1 202.9 1061.5 157.7 1123.1 103C1184.7 48.3 1235.8 2.69995 1236.7 1.69995C1238.6 -0.300049 1241.7 -0.300024 1183.5 1.59998ZM645.1 60C675.1 62.2 703.4 66.3 729.9 72.1C737.3 73.7 743.5 75.0999 743.6 75.2999C743.8 75.4999 641.5 175 516.4 296.4C391.3 417.9 289.1 517.4 289.3 517.6C289.5 517.8 350.4 520 424.6 522.5C498.8 525 561.4 527.1 563.8 527.2L568.1 527.5L526.3 567.1C503.3 588.8 411.2 676 321.7 760.8C232.1 845.6 158.5 915 158.1 915C157.1 915 140.5 892.4 131.3 878.5C118.6 859.4 111.4 847 100 824.5C69.7 764.7 52.3 703.5 45.9 634C44.3 616.6 44.3 569.4 45.9 552C51 496.9 63.4 445.9 83.6 396.5C90.4 380.1 108 345 117 330C168.4 244.7 238.5 177.7 327.5 129.1C398 90.5 475.9 67.5 559.5 60.5C578.1 58.9 627 58.7 645.1 60ZM1015.6 228.3C1050.4 263.8 1076.8 299.1 1102.2 344C1115.3 367 1130.9 402.8 1140.5 431.5C1175.5 536.7 1175.5 649.3 1140.5 754.5C1130.9 783.2 1115.3 819 1102.2 842C1083.4 875.2 1064.8 901.9 1041.2 930C1028.2 945.3 997.5 976.2 982 989.4C902.2 1057.5 806.2 1101.9 701.3 1119.4C669 1124.8 641 1127 605.1 1127C543.8 1127 487.2 1118.3 429 1100.1C415.7 1096 389.7 1086.5 381 1082.7L375.7 1080.4L563.6 980.6C667 925.7 751.9 880.4 752.4 879.9C752.9 879.5 748.1 879.3 741.4 879.5C725.8 880.1 475 882.3 474.5 881.9C474.4 881.7 601.7 784.5 757.5 666L1040.9 450.5L888.4 449.9C804.5 449.5 735.7 449.1 735.5 448.9C735.3 448.6 790.7 399 858.7 338.5C926.7 278 986.2 225 990.9 220.8C995.6 216.5 999.8 213 1000.1 213C1000.4 213 1007.4 219.9 1015.6 228.3ZM254 950.7C283.4 951.2 308.3 951.5 309.3 951.4C310.2 951.4 311 951.6 311 952C311 952.6 270.6 995.7 259.7 1006.7L255.5 1010.9L245.5 1002.9C224.6 986.1 188 952.3 188 949.8C188 949.1 190.4 949 194.3 949.4C197.7 949.7 224.6 950.3 254 950.7Z" fill="#b1140a"/>
</svg>
